<svg xmlns="http://www.w3.org/2000/svg" xml:space="preserve" width="800" height="800" viewBox="0 0 452.392 452.393"><path d="M406.657 149.964H122.883l271.078-78.849c5.842-1.699 9.224-7.841 7.517-13.686L387.092 7.957c-1.694-5.844-7.834-9.215-13.68-7.518L42.666 96.647c-5.844 1.699-9.217 7.839-7.52 13.685l14.39 49.47c.353 1.212.936 2.293 1.632 3.267v49.456c0 6.086 4.951 11.04 11.042 11.04h7.356v219.999c0 4.879 3.962 8.829 8.832 8.829H390.46c4.87 0 8.83-3.955 8.83-8.829V223.565h7.354c6.085 0 11.043-4.954 11.043-11.04v-51.521c.012-6.088-4.946-11.04-11.03-11.04m-146.672 4.416h35.337l-35.224 64.769h-35.33zm-95.677 0h35.333l-35.226 64.769h-35.331zm157.24-134.255 51.907 52.35-33.913 9.87-51.92-52.354zm-87.633 25.488 51.915 52.353-33.923 9.866-51.924-52.351zm-186.88 89.782-7.647-26.296c-1.021-3.508 1.008-7.19 4.51-8.208l9.805-2.848 51.489 51.927H62.21c-.225 0-.439.057-.655.068zm44.854 18.985-20.194 5.877-1.665-1.674 2.282-4.203zm-19.47 64.769H62.214c-3.653 0-6.629-2.97-6.629-6.624v-27.39l10.083-18.528 41.961-12.21zm69.615-146.808 51.916 52.351-33.923 9.869-51.917-52.354zM356.75 347.402H110.937v-14.244H356.75zm0-60.357H110.937v-14.237H356.75zm-5.39-67.896h-35.331l35.216-64.769h35.339z"/></svg>